<?xml version="1.0" standalone="no"?>
<!DOCTYPE svg PUBLIC "-//W3C//DTD SVG 20010904//EN"
 "http://www.w3.org/TR/2001/REC-SVG-20010904/DTD/svg10.dtd">
<svg version="1.0" xmlns="http://www.w3.org/2000/svg"
 width="153.000000pt" height="153.000000pt" viewBox="0 0 153.000000 153.000000"
 preserveAspectRatio="xMidYMid meet">
<metadata>
Created by potrace 1.11, written by Peter Selinger 2001-2013
</metadata>
<g transform="translate(0.000000,153.000000) scale(0.100000,-0.100000)"
fill="#000000" stroke="none">
<path d="M597 1269 c-25 -40 -578 -1000 -583 -1013 -3 -8 181 -11 736 -12 530
-1 740 2 740 10 -1 16 -455 799 -466 803 -5 2 -22 -21 -38 -50 -17 -28 -46
-80 -67 -115 l-36 -64 -128 224 c-70 123 -131 227 -136 232 -4 4 -14 -2 -22
-15z m148 -302 c106 -184 108 -190 93 -215 -217 -379 -261 -450 -276 -453 -26
-6 -451 -3 -457 3 -3 2 91 171 208 374 327 567 297 519 312 497 7 -10 61 -103
120 -206z m406 -219 c67 -117 152 -265 189 -328 38 -63 67 -117 65 -120 -6
-10 -219 -4 -222 6 -2 5 -63 113 -136 240 l-134 232 51 91 c28 50 54 91 58 91
3 0 61 -96 129 -212z m-141 -240 l117 -203 -118 -3 c-65 -1 -174 -1 -244 0
l-125 3 106 185 c130 226 134 233 141 226 3 -3 58 -97 123 -208z"/>
</g>
</svg>
